<svg xmlns="http://www.w3.org/2000/svg" version="1.1" xmlns:xlink="http://www.w3.org/1999/xlink" xmlns:svgjs="http://svgjs.dev/svgjs" width="100%" height="100%" viewBox="0 0 1000 600"><rect width="1000" height="600" x="0" y="0" fill="#96351e"/><g><circle r="166.66666666666666" cx="366.99733988444007" cy="389.21956987480326" fill="#dbb98f" transform="matrix(0.6239683043600395,0,0,0.6239683043600395,0,57.139316081504745)"/><path d="M269.340945429489 372.16653596625514L247.92972831937828 372.16653596625514L247.92972831937828 349.2064222992428L269.340945429489 349.2064222992428L269.340945429489 372.16653596625514ZM269.340945429489 464.2195842793696L247.92972831937828 464.2195842793696L247.92972831937828 441.25947061235723L269.340945429489 441.25947061235723L269.340945429489 464.2195842793696ZM437.71511232091314 464.2195842793696L294.7307007543863 464.2195842793696L353.10284158507125 314.21958242570014L379.55556513529314 314.21958242570014L437.71511232091314 464.2195842793696ZM322.48935669572137 446.3009770524684L322.48935669572137 446.3009770524684L409.0757112785948 446.3009770524684Q407.7697788874816 442.7779966485353 405.0364320223611 436.3394462551403Q402.3030851572406 429.90089586174525 400.11640766514415 424.19123796571574L400.11640766514415 424.19123796571574L373.87627775998715 355.31089696467865Q372.99553265900386 352.2738448923225 371.3555245399316 347.65752574234114Q369.7155164208592 343.0715771130834 368.28810194685184 339.03229785684977Q366.8910579935681 334.9930186006161 366.2229065376497 333.2315283986495L366.2229065376497 333.2315283986495L365.1295677916015 333.2315283986495Q364.70438050147163 334.78042495555115 363.61104175542346 337.8174770279073Q362.5177030093752 340.88489962098697 361.3028821804328 344.28639794202587Q360.08806135149035 347.65752574234114 359.1162046883363 350.63383677325015Q358.1443480251824 353.57977728343565 357.688790214329 354.88570967454876L357.688790214329 354.88570967454876L331.23606666410706 424.19123796571574Q330.1427279180589 427.4712542038604 328.3812377160923 431.63201554298826Q326.65011803484924 435.7927768821162 325.22270356084186 439.6194624932849Q323.7952890868345 443.4461481044536 322.48935669572137 446.3009770524684ZM486.06498131282274 372.16653596625514L464.6233936819885 372.16653596625514L464.6233936819885 349.2064222992428L486.06498131282274 349.2064222992428L486.06498131282274 372.16653596625514ZM486.06498131282274 464.2195842793696L464.6233936819885 464.2195842793696L464.6233936819885 441.25947061235723L486.06498131282274 441.25947061235723L486.06498131282274 464.2195842793696Z " fill="#96351e" transform="matrix(0.6239683043600395,0,0,0.6239683043600395,0,57.139316081504745)"/><path d="M637.0086922616089 461.78193710266703L616.997355143229 461.78193710266703L672.3261512552367 321.78761128442636L697.83635438065 321.78761128442636L753.3352185134938 461.78193710266703L732.3034732700974 461.78193710266703L718.6413422629316 427.08806085210483L650.4724105777993 427.08806085210483L637.0086922616089 461.78193710266703ZM673.9417974531796 366.6855687851539L656.793272018874 410.56311816086486L712.1220681308815 410.56311816086486L695.1719553875514 366.6855687851539Q694.5483726444857 364.84316522609623 693.3295518284938 361.58352816007124Q692.1107310125017 358.3238910940462 690.6934975055343 354.3272926043981Q689.2479193284275 350.3590387848893 687.8306858214601 346.1640276042658Q686.3851076443534 341.99736109378165 685.1662868283614 338.51096666664176L685.1662868283614 338.51096666664176L683.9474660123694 338.51096666664176Q682.5302325054021 342.59259916670794 680.6878289463443 347.89305248276605Q678.8454253872867 353.2218504689635 677.0030218282292 358.2105124134888Q675.1606182691714 363.1991743580141 673.9417974531796 366.6855687851539L673.9417974531796 366.6855687851539ZM786.8102739480639 461.78193710266703L768.8397530797172 461.78193710266703L768.8397530797172 354.4406712849555L783.3238795209243 354.4406712849555L784.9678703890063 370.5687885942446L786.3851038959738 370.5687885942446Q790.46673639604 364.02116979205516 795.5687770211225 359.93953729198904Q800.6708176462053 355.8579047919229 806.7932663963045 353.93046722244725Q812.9157151464037 351.9746849828322 820.0585720215195 351.9746849828322L820.0585720215195 351.9746849828322Q830.4894106327995 351.9746849828322 838.0290928898662 356.16969616345574Q845.5687751469327 360.36470734407925 849.253582265048 370.5687885942446L849.253582265048 370.5687885942446L850.47240308104 370.5687885942446Q854.3556228901307 364.02116979205516 859.4576635152134 360.05291597254643Q864.5597041402959 356.05631748289835 870.8805655813705 354.01550123286523Q877.2014270224454 351.9746849828322 884.3442838975611 351.9746849828322L884.3442838975611 351.9746849828322Q894.1515397657756 351.9746849828322 901.4928093318667 355.3477007294146Q908.8340788979579 358.72071647599705 913.0290900785815 366.3737774136211Q917.2241012592049 374.0268383512451 917.2241012592049 386.89531859450915L917.2241012592049 386.89531859450915L917.2241012592049 461.78193710266703L899.2535803908581 461.78193710266703L899.2535803908581 389.72978560844393Q899.2535803908581 383.2105114763939 897.7229682033335 378.9304662853523Q896.1923560158086 374.65042109431073 893.3295443317345 372.29781347274485Q890.4667326476604 369.9452058511789 886.6968915191269 368.9247977261624Q882.9270503905936 367.90438960114585 878.647005199552 367.90438960114585L878.647005199552 367.90438960114585Q871.5041483244363 367.90438960114585 865.466733584755 371.5891967192611Q859.4576635152134 375.245659167237 855.7728563970982 382.19010335137733Q852.1163939491221 389.13454753551764 852.1163939491221 398.7150460426173L852.1163939491221 398.7150460426173L852.1163939491221 461.78193710266703L834.1458730807753 461.78193710266703L834.1458730807753 389.72978560844393Q834.1458730807753 383.2105114763939 832.5302268828325 378.9304662853523Q830.8862360147505 374.65042109431073 828.2218370216517 372.29781347274485Q825.5857826986924 369.9452058511789 821.8159415701589 368.9247977261624Q818.0177557714862 367.90438960114585 813.9361232714202 367.90438960114585L813.9361232714202 367.90438960114585Q806.5948537053291 367.90438960114585 800.3873709448119 371.5891967192611Q794.1515435141553 375.245659167237 790.46673639604 382.19010335137733Q786.8102739480639 389.13454753551764 786.8102739480639 398.7150460426173L786.8102739480639 398.7150460426173L786.8102739480639 461.78193710266703ZM971.3057318850813 464.21957873465095L971.3057318850813 464.21957873465095Q965.3816958259574 464.21957873465095 959.4576597668338 462.8023452276836Q953.5336237077099 461.3851117207161 948.4315830826274 458.09712998455177Q943.3295424575447 454.8374929185267 940.2683180824949 449.02683553996036Q937.2070937074454 443.216178161394 937.2070937074454 434.429330418196L937.2070937074454 434.429330418196Q937.2070937074454 423.4032537339896 942.5075470235035 416.26039685887383Q947.8363450097011 409.1175399837581 957.3034648362432 405.14928616424936Q966.7989293329249 401.18103234474063 979.8658222671645 399.6504201572158Q992.9327152014039 398.119807969691 1008.2388370766519 398.119807969691L1008.2388370766519 398.119807969691L1008.2388370766519 385.8749104694926Q1008.2388370766519 379.95087441036884 1006.1980208266189 375.67082921932723Q1004.1572045765859 371.36243935814633 998.9417852709457 369.0381764067198Q993.754710635445 366.6855687851539 984.1458674582059 366.6855687851539L984.1458674582059 366.6855687851539Q974.9621943330571 366.6855687851539 969.5483623364416 369.0381764067198Q964.1628750099655 371.36243935814633 962.0086800793749 375.0472464762616Q959.8544851487845 378.73205359437685 959.8544851487845 383.2105114763939L959.8544851487845 383.2105114763939L959.8544851487845 386.27173585144345L942.5075470235035 386.27173585144345Q942.309134332528 385.25132772642695 942.309134332528 384.2309196014104Q942.309134332528 383.2105114763939 942.309134332528 381.79327796942647L942.309134332528 381.79327796942647Q942.309134332528 371.986022101212 947.7229663291437 365.35336928860454Q953.1367983257592 358.72071647599705 962.9157095238343 355.3477007294146Q972.7229653920488 351.9746849828322 985.364688274198 351.9746849828322L985.364688274198 351.9746849828322Q998.8567512605277 351.9746849828322 1007.9270457051191 355.8579047919229Q1016.9973401497105 359.7411246010136 1021.589176712285 366.88398147612935Q1026.1810132748594 374.0268383512451 1026.1810132748594 384.03250691043496L1026.1810132748594 384.03250691043496L1026.1810132748594 442.19577003637744Q1026.1810132748594 446.07898984546813 1028.0234168339168 447.60960203299294Q1029.8658203929747 449.14021422051775 1032.5302193860732 449.14021422051775L1032.5302193860732 449.14021422051775L1040.466727025091 449.14021422051775L1040.466727025091 460.95994166862596Q1037.632260011156 462.1787624846179 1034.145865584016 463.11413659921635Q1030.6878158270156 464.0211660436755 1026.1810132748594 464.0211660436755L1026.1810132748594 464.0211660436755Q1020.8805599588013 464.0211660436755 1017.4225102018008 461.8953157832244Q1013.936115774661 459.74112085263397 1012.1220568857427 455.9712797241006Q1010.2796533266851 452.20143859556737 1009.6560705836193 447.49622335243555L1009.6560705836193 447.49622335243555L1008.2388370766519 447.49622335243555Q1004.5540299585366 452.59826397751823 998.9417852709457 456.36810510605153Q993.3295405833549 460.13794623458483 986.3850963992145 462.1787624846179Q979.4689968852135 464.21957873465095 971.3057318850813 464.21957873465095ZM975.7841897670983 449.14021422051775L975.7841897670983 449.14021422051775Q982.3034638991483 449.14021422051775 988.1424659478541 447.09939797048463Q993.9531233264204 445.0585817204516 998.4315812084374 441.2603959217789Q1002.9383837605938 437.4905547932456 1005.5744380835533 432.1901014771875Q1008.2388370766519 426.8896481611294 1008.2388370766519 420.5687867200548L1008.2388370766519 420.5687867200548L1008.2388370766519 411.5835262858814Q991.713894385412 411.5835262858814 980.0642349581399 413.42592984493905Q968.4429202010072 415.23998873385733 962.2070927703505 419.9452039769891Q955.9996100098333 424.6504192201209 955.9996100098333 433.21050960220407L955.9996100098333 433.21050960220407Q955.9996100098333 438.7093756092376 958.4372516418173 442.19577003637744Q960.874893273801 445.6538197933779 965.3816958259574 447.3828446718781Q969.8601537079744 449.14021422051775 975.7841897670983 449.14021422051775ZM1136.6118481377598 461.78193710266703L1047.8363412613214 461.78193710266703L1047.8363412613214 452.20143859556737L1107.6152505852067 369.54838046922805L1052.1163864523628 369.54838046922805L1052.1163864523628 354.4406712849555L1133.3238664015953 354.4406712849555L1133.3238664015953 363.82275710107973L1073.3465443867346 446.6742279183945L1136.6118481377598 446.6742279183945L1136.6118481377598 461.78193710266703ZM1197.2127528956862 464.21957873465095L1197.2127528956862 464.21957873465095Q1180.8862228954215 464.21957873465095 1169.7751122007971 458.21050866510916Q1158.6356568360334 452.20143859556737 1152.824999457467 439.7297837342541Q1147.0143420789007 427.28647354308026 1147.0143420789007 408.0971318587416L1147.0143420789007 408.0971318587416Q1147.0143420789007 388.70937748342743 1152.824999457467 376.37944597281097Q1158.6356568360334 364.02116979205516 1169.7751122007971 358.01209972251337Q1180.8862228954215 351.9746849828322 1197.2127528956862 351.9746849828322L1197.2127528956862 351.9746849828322Q1213.5392828959507 351.9746849828322 1224.6503935905753 358.01209972251337Q1235.789848955339 364.02116979205516 1241.4871276533481 376.37944597281097Q1247.2127510214964 388.70937748342743 1247.2127510214964 408.0971318587416L1247.2127510214964 408.0971318587416Q1247.2127510214964 427.28647354308026 1241.4871276533481 439.7297837342541Q1235.789848955339 452.20143859556737 1224.6503935905753 458.21050866510916Q1213.5392828959507 464.21957873465095 1197.2127528956862 464.21957873465095ZM1197.2127528956862 449.14021422051775L1197.2127528956862 449.14021422051775Q1207.615246836827 449.14021422051775 1214.5596910209672 445.0585817204516Q1221.5041352051076 440.97694922038545 1225.0755636426654 432.3034801577449Q1228.6469920802233 423.6300110951044 1228.6469920802233 410.36470546988943L1228.6469920802233 410.36470546988943L1228.6469920802233 405.85790291773304Q1228.6469920802233 392.3941846015427 1225.0755636426654 383.83409421945953Q1221.5041352051076 375.245659167237 1214.5596910209672 371.1640266671709Q1207.615246836827 367.0823941671048 1197.2127528956862 367.0823941671048L1197.2127528956862 367.0823941671048Q1186.8102589545454 367.0823941671048 1179.7524360898476 371.1640266671709Q1172.7229578952893 375.245659167237 1169.264908138289 383.83409421945953Q1165.7785137111491 392.3941846015427 1165.7785137111491 405.85790291773304L1165.7785137111491 405.85790291773304L1165.7785137111491 410.36470546988943Q1165.7785137111491 423.6300110951044 1169.264908138289 432.3034801577449Q1172.7229578952893 440.97694922038545 1179.7524360898476 445.0585817204516Q1186.8102589545454 449.14021422051775 1197.2127528956862 449.14021422051775ZM1287.4054932790923 461.78193710266703L1269.4633170808847 461.78193710266703L1269.4633170808847 354.4406712849555L1283.9474435220918 354.4406712849555L1285.5914343901738 370.5687885942446L1287.0086678971413 370.5687885942446Q1291.2887130881827 364.02116979205516 1296.7025450847984 359.93953729198904Q1302.1163770814137 355.8579047919229 1308.7490298940213 353.93046722244725Q1315.381682706629 351.9746849828322 1322.9213649636954 351.9746849828322L1322.9213649636954 351.9746849828322Q1333.1254462138609 351.9746849828322 1340.7785071514847 355.461079409972Q1348.4315680891089 358.9191291669725 1352.8249919607078 366.6855687851539Q1357.2184158323066 374.42366373319595 1357.2184158323066 387.6889693584109L1357.2184158323066 387.6889693584109L1357.2184158323066 461.78193710266703L1339.2478949639599 461.78193710266703L1339.2478949639599 390.1549556605342Q1339.2478949639599 383.4089241673693 1337.5188700854596 379.1288789763277Q1335.7898452069594 374.84883378528616 1332.8136548423279 372.3828474831629Q1329.8658091478358 369.9452058511789 1325.6707979672121 368.9247977261624Q1321.504131456728 367.90438960114585 1316.4020908316452 367.90438960114585L1316.4020908316452 367.90438960114585Q1308.8340639044393 367.90438960114585 1302.1163770814137 371.5891967192611Q1295.3703455882492 375.245659167237 1291.4020917687403 382.19010335137733Q1287.4054932790923 389.13454753551764 1287.4054932790923 398.7150460426173L1287.4054932790923 398.7150460426173L1287.4054932790923 461.78193710266703ZM1402.3147860240097 334.2309214756002L1384.344265155663 334.2309214756002L1384.344265155663 314.2195843572204L1402.3147860240097 314.2195843572204L1402.3147860240097 334.2309214756002ZM1402.3147860240097 461.78193710266703L1384.344265155663 461.78193710266703L1384.344265155663 354.4406712849555L1402.3147860240097 354.4406712849555L1402.3147860240097 461.78193710266703Z " fill="#dbb98f" transform="matrix(0.6239683043600395,0,0,0.6239683043600395,0,57.139316081504745)"/></g></svg>